<?xml version="1.0" standalone="no"?>
<!DOCTYPE svg PUBLIC "-//W3C//DTD SVG 20010904//EN"
 "http://www.w3.org/TR/2001/REC-SVG-20010904/DTD/svg10.dtd">
<svg version="1.0" xmlns="http://www.w3.org/2000/svg"
 width="413.000000pt" height="484.000000pt" viewBox="0 0 413.000000 484.000000"
 preserveAspectRatio="xMidYMid meet">
<metadata>
Created by potrace 1.15, written by Peter Selinger 2001-2017
</metadata>
<g transform="translate(0.000000,484.000000) scale(0.100000,-0.100000)"
fill="#000000" stroke="none">
<path d="M1805 4084 c-301 -25 -581 -98 -728 -191 -49 -31 -69 -76 -98 -223
-31 -152 -33 -474 -6 -645 61 -375 182 -628 433 -906 165 -183 387 -354 592
-458 l63 -32 87 46 c168 89 313 197 466 345 269 261 417 504 495 815 42 170
55 291 55 510 0 179 -3 227 -23 325 -29 147 -49 192 -98 223 -120 76 -318 136
-563 173 -102 15 -561 27 -675 18z m372 -348 c175 -183 283 -389 334 -635 23
-115 27 -309 5 -317 -16 -6 -138 -26 -307 -50 l-116 -17 -13 -209 c-12 -189
-12 -217 3 -286 10 -42 26 -89 37 -104 18 -24 18 -29 5 -55 -10 -19 -15 -60
-15 -135 0 -112 -5 -124 -42 -95 -11 8 -17 37 -21 97 -8 124 -18 147 -87 203
-152 123 -294 351 -346 557 -28 110 -26 349 4 481 58 258 164 451 346 628 42
41 79 85 83 99 5 22 9 18 39 -38 18 -34 59 -90 91 -124z"/>
<path d="M2676 1234 c-3 -9 -6 -17 -6 -19 0 -1 18 -5 40 -9 l40 -6 0 -194 0
-194 -30 -11 c-21 -7 -30 -17 -30 -32 0 -21 1 -21 148 -17 160 5 203 16 270
73 56 47 77 98 77 190 0 104 -30 160 -108 205 l-52 30 -171 0 c-148 0 -173 -2
-178 -16z m273 -35 c95 -22 141 -86 141 -199 0 -109 -38 -168 -122 -191 -45
-12 -113 3 -122 27 -8 21 -8 359 1 367 9 10 51 8 102 -4z"/>
<path d="M3226 1235 c-9 -24 -9 -23 26 -27 43 -4 45 -18 40 -226 l-4 -173 -29
-6 c-30 -6 -46 -30 -30 -46 5 -5 66 -8 143 -5 113 3 140 7 180 27 67 32 88 65
88 139 0 54 -3 63 -30 85 -16 14 -35 27 -42 29 -9 3 -4 15 15 37 38 45 37 99
-2 143 l-29 33 -160 3 c-141 3 -160 1 -166 -13z m272 -58 c27 -25 30 -82 5
-109 -12 -13 -30 -18 -70 -18 l-53 0 0 73 c0 41 3 77 7 81 13 13 87 -5 111
-27z m-3 -191 c18 -8 38 -23 44 -34 14 -26 14 -87 1 -112 -23 -42 -129 -49
-150 -10 -6 10 -10 53 -10 94 l0 76 40 0 c22 0 56 -6 75 -14z"/>
<path d="M553 1080 c-67 -16 -80 -34 -38 -50 26 -10 26 -10 23 -117 -3 -103
-4 -108 -25 -111 -15 -2 -23 -10 -23 -23 0 -17 8 -19 90 -19 82 0 90 2 90 19
0 13 -8 21 -22 23 -22 3 -23 8 -26 106 l-3 103 32 13 c73 31 101 -7 97 -130
-3 -84 -4 -89 -25 -92 -15 -2 -23 -10 -23 -23 0 -17 8 -19 85 -19 77 0 85 2
85 19 0 13 -8 21 -22 23 -22 3 -23 8 -26 103 -3 111 4 125 63 125 53 0 65 -24
65 -129 0 -84 -2 -93 -20 -98 -11 -3 -20 -14 -20 -24 0 -17 8 -19 85 -19 77 0
85 2 85 19 0 13 -8 21 -22 23 -22 3 -23 8 -28 113 -6 125 -19 157 -76 175 -30
10 -41 8 -91 -14 -56 -26 -56 -26 -77 -7 -35 32 -66 34 -118 8 -47 -24 -47
-24 -50 -3 -3 21 -4 21 -65 6z"/>
<path d="M1248 1086 c-89 -32 -122 -77 -122 -166 0 -106 57 -165 159 -165 109
0 175 67 175 178 0 116 -106 192 -212 153z m99 -73 c39 -49 43 -155 6 -195
-26 -29 -74 -23 -108 12 -26 27 -30 40 -33 101 -4 63 -2 73 19 95 31 34 84 27
116 -13z"/>
<path d="M1566 1080 c-33 -9 -61 -21 -64 -28 -2 -6 11 -18 27 -27 l31 -16 0
-99 c0 -98 0 -100 -25 -106 -16 -4 -25 -13 -25 -25 0 -17 8 -19 90 -19 82 0
90 2 90 19 0 13 -8 21 -22 23 -22 3 -23 8 -26 103 -3 109 4 125 58 125 55 0
65 -19 65 -127 0 -95 -1 -98 -23 -101 -17 -3 -22 -9 -20 -24 3 -18 10 -20 88
-20 77 0 85 2 88 20 2 14 -4 21 -22 26 -25 6 -26 9 -26 90 0 106 -7 140 -35
170 -35 37 -70 42 -126 18 -38 -16 -49 -17 -49 -7 0 22 -11 22 -74 5z"/>
<path d="M2020 1082 c-93 -36 -119 -143 -51 -204 l32 -28 -26 -12 c-30 -14
-32 -38 -5 -63 20 -18 20 -19 -15 -47 -27 -23 -35 -37 -35 -61 1 -63 50 -97
138 -97 108 0 192 62 192 141 0 75 -25 93 -142 104 -49 5 -68 11 -68 21 0 8
10 14 22 14 37 0 108 40 123 71 8 15 15 44 15 64 0 27 4 35 18 35 25 0 42 19
42 47 0 26 -3 28 -30 11 -15 -10 -32 -9 -84 5 -76 20 -70 20 -126 -1z m83 -49
c24 -27 31 -70 17 -103 -17 -41 -62 -45 -92 -8 -21 23 -24 98 -6 116 18 18 63
15 81 -5z m51 -303 c21 -8 26 -16 26 -44 0 -45 -29 -66 -91 -66 -79 0 -124 55
-82 102 18 20 103 25 147 8z"/>
<path d="M2408 1086 c-62 -22 -89 -45 -110 -93 -34 -77 -11 -168 54 -215 26
-18 46 -23 93 -23 109 0 175 67 175 178 0 116 -106 192 -212 153z m99 -73 c39
-49 43 -155 6 -195 -26 -29 -74 -23 -108 12 -26 27 -30 40 -33 101 -4 63 -2
73 19 95 31 34 84 27 116 -13z"/>
</g>
</svg>
